<?xml version="1.0" encoding="UTF-8"?>
<svg id="Layer_1" data-name="Layer 1" xmlns="http://www.w3.org/2000/svg" viewBox="0 0 662.07 143.93">
  <path d="m139.95.76c-3.56-1.78-7.88-.34-9.66,3.22l-58.33,116.66L13.63,3.98C11.86.43,7.53-1.02,3.98.76.42,2.54-1.02,6.86.76,10.42l64.77,129.53c1.22,2.44,3.71,3.98,6.44,3.98s5.22-1.54,6.44-3.98L143.17,10.42c1.78-3.56.34-7.88-3.22-9.66Z"/>
  <path d="m463.34,14.39c15.37,0,29.83,5.99,40.72,16.86,2.81,2.81,7.37,2.8,10.18,0,2.81-2.81,2.8-7.37,0-10.18C500.62,7.48,482.55,0,463.34,0s-37.28,7.48-50.9,21.07c-13.58,13.6-21.07,31.68-21.07,50.89,0,15.37-5.99,29.83-16.85,40.71-10.89,10.87-25.35,16.86-40.72,16.86s-29.83-5.99-40.71-16.85c-10.87-10.89-16.86-25.35-16.86-40.72s5.99-29.83,16.85-40.71c10.89-10.87,25.35-16.86,40.72-16.86s29.83,5.99,40.72,16.86c2.81,2.81,7.37,2.8,10.18,0,2.81-2.81,2.8-7.37,0-10.18C371.09,7.48,353.02,0,333.81,0s-37.28,7.48-50.9,21.07c-5.77,5.78-10.43,12.37-13.89,19.51C257.34,16.58,232.71,0,204.27,0,164.59,0,132.31,32.28,132.31,71.96s32.28,71.96,71.96,71.96c28.44,0,53.07-16.58,64.75-40.58,3.46,7.14,8.12,13.73,13.9,19.51,13.6,13.58,31.68,21.07,50.89,21.07s37.28-7.48,50.9-21.07c5.76-5.77,10.41-12.35,13.87-19.47,3.46,7.12,8.11,13.7,13.88,19.48,13.6,13.58,31.68,21.07,50.89,21.07s37.28-7.48,50.89-21.07c2.81-2.81,2.82-7.37,0-10.18-2.81-2.81-7.36-2.82-10.18,0-10.89,10.87-25.35,16.86-40.72,16.86s-29.83-5.99-40.71-16.85c-10.87-10.89-16.86-25.35-16.86-40.72s5.99-29.83,16.85-40.71c10.89-10.87,25.35-16.86,40.72-16.86Zm-259.07,115.14c-31.75,0-57.57-25.83-57.57-57.57s25.83-57.57,57.57-57.57,57.57,25.83,57.57,57.57-25.83,57.57-57.57,57.57Z"/>
  <path d="m661.31,133.51L596.54,3.98c-1.22-2.44-3.71-3.98-6.44-3.98s-5.22,1.54-6.44,3.98l-64.77,129.53c-1.78,3.56-.34,7.88,3.22,9.66s7.88.34,9.66-3.22l19.8-39.59c11.46,7.26,24.85,11.19,38.53,11.19,3.97,0,7.2-3.22,7.2-7.2s-3.22-7.2-7.2-7.2c-11.44,0-22.63-3.44-32.05-9.75l32.05-64.11,58.33,116.66c1.26,2.52,3.8,3.98,6.44,3.98,1.08,0,2.18-.25,3.21-.76,3.55-1.78,4.99-6.1,3.22-9.66Z"/>
</svg>